<svg width="64" height="64" viewBox="0 0 64 64" fill="none" xmlns="http://www.w3.org/2000/svg">
<g id="Computer">
<path id="Union" fill-rule="evenodd" clip-rule="evenodd" d="M55.333 5.33301C57.1753 5.33301 58.6666 6.85957 58.6666 8.73763L58.6565 45.0513C58.6565 46.9294 57.1651 48.4559 55.3229 48.4559H37.1031C36.9446 48.4559 36.7961 48.5248 36.6881 48.642C36.5835 48.7626 36.5329 48.9211 36.5498 49.0796C36.8798 52.4769 37.9875 53.4508 40.6945 55.8307C41.0601 56.1522 41.4548 56.4992 41.8808 56.8813C42.1203 57.2294 42.1507 57.6842 41.9584 58.0564C41.7661 58.4355 41.3848 58.6663 40.9698 58.6663H23.0199C22.6049 58.6663 22.2237 58.432 22.0347 58.0564C21.8424 57.6808 21.8728 57.2294 22.1089 56.8813C22.5362 56.4983 22.9322 56.1506 23.2989 55.8286C26.0069 53.4502 27.1164 52.4759 27.4433 49.0796C27.4568 48.9211 27.4062 48.7626 27.3016 48.642C27.197 48.5214 27.0452 48.4559 26.8899 48.4559H8.6668C6.82795 48.4559 5.33325 46.9294 5.33325 45.0513V8.73763C5.33325 6.85957 6.82795 5.33301 8.6668 5.33301H55.333ZM53.1096 39.3758C53.7236 39.3758 54.223 38.8692 54.223 38.2421V11.0085C54.223 10.3814 53.7236 9.87136 53.1096 9.87136H10.8903C10.2762 9.87136 9.78023 10.3814 9.78023 11.0085V38.2421C9.78023 38.8692 10.2762 39.3758 10.8903 39.3758H53.1096ZM35.7567 27.1182C35.6049 27.7867 35.642 28.4863 35.8613 29.1341C40.4871 30.8502 43.3179 32.6283 44.1547 34.3341C44.3267 34.6856 44.3065 35.1025 44.104 35.4368C43.9016 35.7711 43.544 35.9744 43.1593 35.9744H20.8435C20.4588 35.9744 20.1012 35.7711 19.8987 35.4368C19.6963 35.1025 19.676 34.6856 19.8481 34.3341C20.6849 32.6283 23.5157 30.8502 28.263 29.0549C28.3912 28.3794 28.3608 27.6834 28.1786 27.0252C26.522 25.1506 25.7021 22.6591 25.918 20.147C25.6818 17.7762 26.7885 15.4777 28.7657 14.2165C30.7462 12.9587 33.2565 12.9587 35.2371 14.2165C37.2143 15.4777 38.321 17.7762 38.0848 20.147C38.294 22.7005 37.4505 25.2264 35.7567 27.1182Z" fill="#D64309"/>
</g>
</svg>
