<svg width="64" height="64" viewBox="0 0 64 64" fill="none" xmlns="http://www.w3.org/2000/svg">
<g id="Verified">
<path id="Union" fill-rule="evenodd" clip-rule="evenodd" d="M39.5538 18.6693C39.5538 18.9734 39.2815 19.2214 38.943 19.2214H18.1667C17.8316 19.2214 17.5559 18.9734 17.5559 18.6693V12.0021C17.5559 11.6946 17.8281 11.4467 18.1667 11.4434H22.4428V11.0864C22.3939 8.53785 24.2125 6.27024 26.8933 5.53311C28.7398 5.07364 30.7155 5.41411 32.2375 6.46527C33.7629 7.51643 34.66 9.15268 34.6669 10.8914V11.4467H38.943C39.2815 11.45 39.5538 11.6946 39.5538 12.0021V18.6693ZM30.3874 10.3361C30.3874 9.41382 29.5671 8.67007 28.5548 8.67007C27.5426 8.67007 26.7223 9.41382 26.7223 10.3361C26.7223 11.2583 27.5426 12.0021 28.5548 12.0021C29.5671 12.0021 30.3874 11.2583 30.3874 10.3361ZM17.5568 28.1096H33.4462C34.455 28.1096 35.2787 27.3658 35.2787 26.4436C35.2787 25.5213 34.455 24.7776 33.4462 24.7776H17.5568C16.5445 24.7776 15.7242 25.5213 15.7242 26.4436C15.7242 27.3658 16.5445 28.1096 17.5568 28.1096ZM45.3333 29.779C37.9695 29.779 31.9999 35.7476 31.9999 43.1108C31.9999 50.477 37.9695 56.4456 45.3333 56.4456C52.6971 56.4456 58.6666 50.477 58.6666 43.1108C58.6578 35.7507 52.6912 29.7881 45.3333 29.779ZM51.4873 39.1652L45.5383 47.1112C45.0023 47.8253 44.1821 48.2708 43.2917 48.3349C42.4012 48.3959 41.5283 48.0694 40.8986 47.4377L37.823 44.3619C37.41 43.9743 37.2401 43.3976 37.3807 42.8545C37.5184 42.3083 37.946 41.881 38.4908 41.7437C39.0357 41.6034 39.6127 41.7712 39.9964 42.1862L42.6619 44.8532C42.7673 44.96 42.9138 45.0118 43.0603 45.0027C43.2096 44.9905 43.3444 44.9142 43.4352 44.7952L49.0386 37.3222C49.3666 36.8828 49.9056 36.6539 50.4534 36.718C50.9982 36.7851 51.4668 37.136 51.6836 37.6426C51.8974 38.1491 51.83 38.7289 51.499 39.1714L51.4873 39.1652ZM24.8906 35.888H17.5568C16.5445 35.888 15.7242 35.141 15.7242 34.2221C15.7242 33.2998 16.5445 32.5561 17.5568 32.5561H24.8906C25.9029 32.5561 26.7232 33.2998 26.7232 34.2221C26.7232 35.141 25.9029 35.888 24.8906 35.888ZM17.5568 43.6691H24.2798C25.292 43.6691 26.1123 42.9254 26.1123 42.0031C26.1123 41.0809 25.292 40.3371 24.2798 40.3371H17.5568C16.5445 40.3371 15.7242 41.0809 15.7242 42.0031C15.7242 42.9254 16.5445 43.6691 17.5568 43.6691ZM32.1238 54.4551C32.0121 54.3096 31.8306 54.2237 31.6351 54.2171H11.4453C10.7716 54.2171 10.2236 53.7212 10.2236 53.1064V17C10.2236 16.3851 10.7716 15.886 11.4453 15.886H13.2779C13.6165 15.886 13.8888 15.6414 13.8888 15.334V12.002C13.8888 11.6946 13.6165 11.4466 13.2779 11.4466H10.2236C7.52187 11.4466 5.33325 13.4366 5.33325 15.8893V54.2204C5.33325 56.6764 7.52187 58.6663 10.2236 58.6663H34.9722C35.227 58.6663 35.4539 58.5209 35.5446 58.2994C35.6319 58.0846 35.5621 57.84 35.3666 57.6879C34.1449 56.7359 33.0558 55.6484 32.1238 54.4551ZM51.5663 26.5365C51.4301 26.6456 51.2486 26.6952 51.0706 26.6688C50.0932 26.5233 49.1019 26.4506 48.1106 26.444C48.0146 26.444 47.9186 26.4489 47.8226 26.4539C47.7266 26.4589 47.6306 26.4638 47.5346 26.4638C47.3671 26.4704 47.203 26.4175 47.0808 26.3118C46.9587 26.206 46.8888 26.0605 46.8888 25.9085V17.0033C46.8888 16.3885 46.3408 15.8927 45.6671 15.8927H43.8345C43.496 15.8927 43.2237 15.6448 43.2237 15.3374V12.0021C43.2202 11.8533 43.2865 11.7145 43.4017 11.6087C43.5134 11.5029 43.6705 11.4434 43.8345 11.4434H46.8888C49.5871 11.4434 51.7757 13.4334 51.7757 15.8861V26.1101C51.7792 26.2721 51.7024 26.4308 51.5663 26.5365Z" fill="#D64309"/>
</g>
</svg>
