<svg width="210" height="68" viewBox="0 0 210 68" fill="none" xmlns="http://www.w3.org/2000/svg">
<g id="Logo" clip-path="url(#clip0_4425_3376)">
<rect width="210" height="68" fill="white"/>
<path id="Union" fill-rule="evenodd" clip-rule="evenodd" d="M66.1955 22.4449H62.7401V15.0981H66.1955C68.2939 15.0981 69.7811 15.4887 70.3934 16.7934C70.6561 17.3146 70.7875 17.8801 70.7875 18.7056C70.7875 19.5323 70.6561 20.1409 70.3934 20.6621C69.7811 21.9237 68.3818 22.4449 66.1955 22.4449ZM62.7401 27.6615H63.9212L72.2736 39.9207H81.2394L72.2736 27.4015C75.1168 26.8791 77.0404 25.4007 78.0467 22.9661C78.571 21.7488 78.8772 20.1409 78.8772 18.4456C78.8772 16.706 78.571 15.1844 78.0467 13.9671C76.6029 10.8376 73.4102 9.22852 68.5132 9.22852H54.8252V39.9207H62.7401V27.6615ZM87.4925 26.7042C87.5793 25.8787 87.7107 25.4007 87.9734 24.8352C88.6291 23.401 89.985 22.7049 91.8652 22.7049C93.79 22.7049 95.1013 23.401 95.7581 24.8352C96.0208 25.4007 96.151 25.8344 96.1956 26.7042H87.4925ZM103.455 32.6169H96.0642C95.9763 33.2256 95.6701 33.8774 95.1458 34.3123C94.4456 34.9209 93.3524 35.2252 92.0845 35.2252C89.985 35.2252 88.5857 34.5303 87.9734 33.1381C87.6673 32.5295 87.5359 31.7471 87.4491 30.8341H103.63C103.63 27.7046 103.455 25.7913 102.492 23.661C100.743 19.8786 96.9826 17.5746 91.735 17.5746C86.5741 17.5746 82.8126 19.7923 81.1071 23.5747C80.4081 25.0963 80.0574 26.7042 80.0574 29.0082C80.0574 31.1385 80.4081 32.9644 81.1071 34.5303C82.8571 38.399 86.8369 40.5293 92.2159 40.5293C95.6701 40.5293 98.8194 39.6595 100.962 37.7029C102.362 36.4425 103.28 34.7472 103.455 32.6169ZM119.766 33.3993C120.072 32.7907 120.16 32.182 120.16 31.0079V30.7035H117.36C115.262 30.7035 113.556 30.9216 113.075 32.0514C112.943 32.3126 112.856 32.6169 112.856 33.0075C112.856 33.3993 112.899 33.7036 113.075 34.0511C113.512 35.0084 114.649 35.3558 115.961 35.3558C117.929 35.3558 119.197 34.6597 119.766 33.3993ZM127.462 27.4435V39.9206H120.16V37.3555C118.716 39.3551 116.486 40.5293 112.943 40.5293C109.488 40.5293 106.908 39.312 105.815 36.8774C105.377 36.0076 105.203 35.0084 105.203 33.7911C105.203 32.6169 105.377 31.6608 105.728 30.8341C107.302 27.4435 111.543 26.6611 116.879 26.6611H120.16V26.3136C120.16 25.0089 120.072 24.5308 119.81 23.9653C119.371 23.0092 118.366 22.5312 116.792 22.5312C115.087 22.5312 114.124 22.9661 113.687 23.9222C113.512 24.3571 113.468 24.6614 113.425 25.2258H105.99C106.034 24.0528 106.252 23.0524 106.646 22.1826C108.089 19.0099 111.806 17.5746 116.704 17.5746C121.995 17.5746 125.101 18.9668 126.544 22.0963C127.156 23.5304 127.462 25.3132 127.462 27.4435ZM130.435 9.22852H137.739V39.9207H130.435V9.22852ZM141.718 9.22858H150.902L159.036 27.7047L167.17 9.22858H176.31V39.9207H168.832V21.2708L160.741 39.9207H157.286L149.196 21.2708V39.9207H141.718V9.22858ZM185.885 26.7042C185.972 25.8787 186.104 25.4007 186.366 24.8352C187.022 23.401 188.378 22.7049 190.258 22.7049C192.183 22.7049 193.494 23.401 194.15 24.8352C194.413 25.4007 194.544 25.8344 194.589 26.7042H185.885ZM201.848 32.6169H194.457C194.369 33.2256 194.063 33.8774 193.539 34.3123C192.839 34.9209 191.745 35.2252 190.477 35.2252C188.378 35.2252 186.979 34.5303 186.366 33.1381C186.06 32.5295 185.929 31.7471 185.842 30.8341H202.023C202.023 27.7046 201.848 25.7913 200.885 23.661C199.136 19.8786 195.376 17.5746 190.128 17.5746C184.967 17.5746 181.206 19.7923 179.5 23.5747C178.801 25.0963 178.45 26.7042 178.45 29.0082C178.45 31.1385 178.801 32.9644 179.5 34.5303C181.25 38.399 185.23 40.5293 190.609 40.5293C194.063 40.5293 197.211 39.6595 199.354 37.7029C200.755 36.4425 201.672 34.7472 201.848 32.6169Z" fill="#FF2C00"/>
<path id="Vector" d="M34.649 15.2532C33.3013 15.083 29.3533 15.0375 27.2479 16.8786C26.1887 17.8044 25.6738 19.1441 25.6738 20.977V33.3679H20.8965V20.977C20.8965 17.7788 22.0084 15.1227 24.1138 13.2932C28.2296 9.71716 34.5716 10.4494 35.2812 10.5462L34.649 15.2532ZM16.2224 21.1356C15.6876 22.2794 14.6413 22.8508 13.1411 22.8508C11.621 22.8508 10.5724 22.2794 10.0587 21.1356C9.83232 20.6657 9.75139 20.1352 9.75139 19.4613C9.75139 18.7675 9.83232 18.2556 10.0587 17.7659C10.5724 16.6221 11.621 16.0706 13.1411 16.0706C14.6413 16.0706 15.6876 16.6221 16.2224 17.7659C16.4476 18.2556 16.5309 18.7675 16.5309 19.4613C16.5309 20.1352 16.4476 20.6657 16.2224 21.1356ZM21.4009 0.00336803C21.4009 0.00336803 0.00439453 -0.64725 0.00439453 16.1371C0.00439453 32.9214 10.1736 46.9085 21.4009 46.9085C32.6269 46.9085 42.7973 32.9214 42.7973 16.1371C42.7973 -0.64725 21.4009 0.00336803 21.4009 0.00336803Z" fill="#FF2C00"/>
<path id="Vector_2" d="M206.694 12.4801C206.694 12.1373 206.464 11.9729 205.905 11.9729H205.182V13.0187H205.89C206.448 13.0187 206.694 12.8555 206.694 12.4801ZM206.99 13.3942C207.402 13.5423 207.549 13.8687 207.549 14.3258V15.1921H206.645V14.4727C206.645 14.0157 206.464 13.7382 205.905 13.7382H205.182V15.1921H204.278V11.2709H206.103C207.138 11.2709 207.615 11.6301 207.615 12.4148C207.615 12.9371 207.402 13.2473 206.99 13.3942ZM208.951 13.2309C208.951 12.6025 208.876 12.1408 208.672 11.6965C208.187 10.6611 207.24 10.1621 205.881 10.1621C204.506 10.1621 203.557 10.6611 203.091 11.6965C202.887 12.1408 202.813 12.6025 202.813 13.2309C202.813 13.8419 202.887 14.3223 203.091 14.7479C203.557 15.7833 204.506 16.301 205.881 16.301C207.24 16.301 208.187 15.7833 208.672 14.7479C208.876 14.3223 208.951 13.8419 208.951 13.2309ZM209.75 13.2309C209.75 13.9527 209.657 14.489 209.397 15.0254C208.821 16.2823 207.593 17.0402 205.881 17.0402C204.17 17.0402 202.925 16.2823 202.366 15.0254C202.106 14.489 202.013 13.9527 202.013 13.2309C202.013 12.5104 202.106 11.974 202.366 11.4563C202.925 10.1807 204.17 9.42285 205.881 9.42285C207.593 9.42285 208.821 10.1621 209.397 11.4377C209.657 11.974 209.75 12.5104 209.75 13.2309Z" fill="#FF2C00"/>
<path id="Union_2" fill-rule="evenodd" clip-rule="evenodd" d="M58.8413 53.6568H54.8381V51.3691H65.5141V53.6568H61.4874V67.5203H58.8413V53.6568ZM67.1261 59.6733C66.9654 60.0161 66.8728 60.3367 66.827 60.7483H73.1538C73.108 60.2913 73.0165 59.9473 72.8781 59.5812C72.3949 58.5749 71.4284 58.0491 70.0256 58.0491C68.5759 58.0491 67.6094 58.5982 67.1261 59.6733ZM73.4998 54.1594H66.5514V52.3066H73.4998V54.1594ZM73.1772 63.6306H75.7084C75.5935 64.7978 75.1325 65.7131 74.3736 66.422C73.3614 67.314 71.8659 67.7943 70.1628 67.7943C67.5179 67.7943 65.6072 66.696 64.7556 64.8199C64.3885 63.9967 64.2044 63.036 64.2044 61.8921C64.2044 60.7028 64.3885 59.8109 64.7556 58.9865C65.6072 57.1338 67.4252 56.0133 69.9787 56.0133C72.5333 56.0133 74.3513 57.1338 75.1794 58.9644C75.6392 60.0394 75.7776 61.0923 75.7776 62.6011H66.7813C66.827 63.219 66.9185 63.7449 67.1261 64.1798C67.5859 65.2327 68.6216 65.7807 70.1171 65.7807C71.0601 65.7807 71.9116 65.5522 72.4418 65.0718C72.8547 64.7057 73.108 64.1343 73.1772 63.6306ZM88.0182 67.5192V60.5874C88.0182 57.5675 86.4078 56.0121 83.6925 56.0121C82.1278 56.0121 80.9549 56.538 80.1725 57.5675V56.3094H77.6179V67.5192H80.1725V61.2054C80.1725 59.1917 81.1613 58.1622 82.9559 58.1622C84.6589 58.1622 85.487 59.0542 85.487 61.0911V67.5192H88.0182ZM92.69 59.6733C92.5293 60.0161 92.4366 60.3367 92.3909 60.7483H98.7176C98.6719 60.2913 98.5804 59.9473 98.442 59.5812C97.9587 58.5749 96.9922 58.0491 95.5894 58.0491C94.1397 58.0491 93.1732 58.5983 92.69 59.6733ZM98.7411 63.6306H101.272C101.157 64.7978 100.696 65.7131 99.9375 66.422C98.9252 67.314 97.4297 67.7944 95.7267 67.7944C93.0817 67.7944 91.171 66.696 90.3195 64.8199C89.9524 63.9968 89.7682 63.036 89.7682 61.8922C89.7682 60.7029 89.9524 59.8109 90.3195 58.9865C91.171 57.1338 92.9891 56.0133 95.5425 56.0133C98.0971 56.0133 99.9152 57.1338 100.743 58.9644C101.203 60.0394 101.341 61.0923 101.341 62.6011H92.3451C92.3909 63.219 92.4824 63.7449 92.69 64.1798C93.1497 65.2327 94.1854 65.7807 95.6809 65.7807C96.6239 65.7807 97.4755 65.5522 98.0045 65.0718C98.4185 64.7057 98.6719 64.1343 98.7411 63.6306ZM105.736 56.3094H103.183V67.5191H105.736V56.3094ZM104.494 51.7574C103.551 51.7574 102.93 52.3521 102.93 53.1986C102.93 54.0229 103.551 54.6164 104.494 54.6164C105.369 54.6164 105.99 54.0229 105.99 53.1986C105.99 52.3521 105.369 51.7574 104.494 51.7574ZM121.636 61.5493L118.784 53.2219H118.737L115.884 61.5493H121.636ZM122.373 63.7227H115.148L113.836 67.5203H111.052L116.782 51.3691H120.739L126.422 67.5203H123.684L122.373 63.7227ZM137.836 67.5192V56.3094H135.282V62.6232C135.282 64.6369 134.292 65.6664 132.498 65.6664C130.795 65.6664 129.967 64.7745 129.967 62.7375V56.3094H127.436V63.2412C127.436 66.2611 129.046 67.8165 131.761 67.8165C133.326 67.8165 134.5 67.2907 135.282 66.2611V67.5192H137.836Z" fill="#FF2C00"/>
</g>
<defs>
<clipPath id="clip0_4425_3376">
<rect width="210" height="68" fill="white"/>
</clipPath>
</defs>
</svg>